<svg width="662" height="279" viewBox="0 0 662 279" fill="none" xmlns="http://www.w3.org/2000/svg">
<g clip-path="url(#clip0_245_6042)">
<path d="M139.227 246.012C139.227 246.012 132.684 229.922 124.88 229.922C122.105 229.922 120.249 239.588 120.249 239.588C120.249 239.588 96.2432 207.18 78.7804 207.18C68.1724 207.18 72.2372 233.672 72.2372 233.672C72.2372 233.672 64.6742 222.761 55.9499 222.761C50.568 222.761 50.5255 236.687 50.5255 236.687C50.5255 236.687 45.6677 232.342 41.9145 232.342C37.9347 232.342 37 246.012 37 246.012H139.227Z" fill="#0084C1"/>
<path d="M56.0016 122H87.7501C87.7501 122 89.1237 114.641 85.4302 114.707C81.4315 114.78 79.9739 118.137 79.9739 118.137C79.9739 118.137 79.249 108.927 74.9984 109C66.1539 109.162 63.3914 119.246 63.3914 119.246C63.3914 119.246 61.7507 115.287 58.7974 116.668C55.8441 118.049 56.0016 122 56.0016 122Z" fill="#08A6F0"/>
<path d="M605 130.99H547.158C547.158 130.99 546.12 125.251 549.359 125.251C550.604 125.251 552.14 127.456 552.14 127.456C552.14 127.456 551.414 110 558.72 110C566.027 110 568.01 127.456 568.01 127.456C568.01 127.456 584.605 129.808 588.477 129.808C592.348 129.808 605 131 605 131V130.99Z" fill="#08A6F0"/>
<path d="M363.886 119.27V65.3806H345.857V114.133" fill="white"/>
<path d="M361.139 152.583V110.086H334.994V152.583" fill="white"/>
<path d="M431.534 155.96C469.384 155.96 500.068 125.3 500.068 87.4799C500.068 49.6595 469.384 19 431.534 19C393.684 19 363 49.6595 363 87.4799C363 125.3 393.684 155.96 431.534 155.96Z" fill="#3DB6EF"/>
<path d="M487.548 178.22L465.582 156.271H445.584L438.856 149.549H413.42L436.619 154.927L443.346 161.649H463.344L487.548 178.22Z" fill="white"/>
<path fill-rule="evenodd" clip-rule="evenodd" d="M461.672 91.345V70.045H459.959V90.8972L448.147 104.816V120.934H438V112H424.863V73.866H390.363V91.8245H365.719V153.795H400.206L420 153.795V158.433L438 160V154.336L456.121 159.04V159.455H457.72L459.52 159.922V159.455H459.597L471.309 163.219L481.076 172.645V126.496H473.117V104.816L461.672 91.345Z" fill="#08A6F0"/>
<path d="M367.767 51.4554H185.392V245.956H367.767V51.4554Z" fill="#DEEAFF"/>
<path d="M367.526 0H327.828V51.4554H367.526V0Z" fill="#E1E9FF"/>
<path d="M328.352 0H288.653V51.4554H328.352V0Z" fill="#AEC1E3"/>
<path d="M216.153 245.956V197.43C216.153 167.938 243.091 144.036 276.331 144.036H278.102C310.648 144.036 337.019 167.442 337.019 196.312V245.956H216.153Z" fill="#AEC1E3"/>
<path d="M251.334 148.875C271.516 157.168 285.523 175.297 285.523 196.326V245.97H216.153V197.444C216.153 175.877 230.571 157.31 251.334 148.875Z" fill="#00EEFF"/>
<path d="M328.097 81.3013H294.984V105.005H328.097V81.3013Z" fill="#AEC1E3"/>
<path d="M288.795 81.3013H255.682V105.005H288.795V81.3013Z" fill="#AEC1E3"/>
<path d="M249.266 81.3013H216.153V105.005H249.266V81.3013Z" fill="#AEC1E3"/>
<path d="M187.998 51.4554H110.711V245.956H187.998V51.4554Z" fill="#AEC1E3"/>
<path d="M662 246.012C662 246.012 660.527 229.922 649.876 229.922C645.684 229.922 642.908 237.352 642.908 237.352C642.908 237.352 633.547 210.633 616.084 210.633C598.621 210.633 594.995 237.125 594.995 237.125C594.995 237.125 592.998 226.214 584.274 226.214C574.289 226.214 574.289 240.55 574.289 240.55C574.289 240.55 571.811 237.536 568.072 237.536C564.092 237.536 562.761 246.012 562.761 246.012H662Z" fill="#009CE5"/>
<path d="M142.974 209.926H139.037V245.998H142.974V209.926Z" fill="#0084C1"/>
<path d="M141.006 227.912C151.417 227.912 159.856 219.479 159.856 209.077C159.856 198.674 151.417 190.241 141.006 190.241C130.595 190.241 122.155 198.674 122.155 209.077C122.155 219.479 130.595 227.912 141.006 227.912Z" fill="#0084C1"/>
<path d="M114.45 209.926H110.513V245.998H114.45V209.926Z" fill="#009CE5"/>
<path d="M112.481 227.912C122.892 227.912 131.332 219.479 131.332 209.077C131.332 198.674 122.892 190.241 112.481 190.241C102.07 190.241 93.6304 198.674 93.6304 209.077C93.6304 219.479 102.07 227.912 112.481 227.912Z" fill="#009CE5"/>
<path d="M639.481 279H650.358C651.137 279 651.775 278.363 651.775 277.585C651.775 276.807 651.137 276.17 650.358 276.17H639.481C638.702 276.17 638.065 276.807 638.065 277.585C638.065 278.363 638.702 279 639.481 279Z" fill="#007EB9"/>
<path d="M344.938 251.17C351.939 251.17 357.614 245.499 357.614 238.504C357.614 231.509 351.939 225.839 344.938 225.839C337.937 225.839 332.262 231.509 332.262 238.504C332.262 245.499 337.937 251.17 344.938 251.17Z" fill="black"/>
<path d="M454.02 251.17C461.021 251.17 466.696 245.499 466.696 238.504C466.696 231.509 461.021 225.839 454.02 225.839C447.019 225.839 441.344 231.509 441.344 238.504C441.344 245.499 447.019 251.17 454.02 251.17Z" fill="black"/>
<path d="M454.02 243.019C456.515 243.019 458.538 240.998 458.538 238.504C458.538 236.011 456.515 233.99 454.02 233.99C451.525 233.99 449.502 236.011 449.502 238.504C449.502 240.998 451.525 243.019 454.02 243.019Z" fill="white"/>
<path d="M339.981 238.504H480.83C492.968 238.504 502.811 228.669 502.811 216.541V174.963C502.811 162.835 492.968 153 480.83 153H365.516C339.273 153 318 174.256 318 200.479V216.527C318 228.655 327.843 238.49 339.981 238.49V238.504Z" fill="#E6E8EA"/>
<path d="M344.938 243.019C347.433 243.019 349.456 240.998 349.456 238.504C349.456 236.011 347.433 233.99 344.938 233.99C342.443 233.99 340.42 236.011 340.42 238.504C340.42 240.998 342.443 243.019 344.938 243.019Z" fill="white"/>
<path d="M339.981 233.99H480.83C492.968 233.99 502.811 224.155 502.811 212.027V216.541C502.811 228.669 492.968 238.504 480.83 238.504H339.981C327.843 238.504 318 228.669 318 216.541V212.027C318 224.155 327.843 233.99 339.981 233.99Z" fill="#BAC1CE"/>
<path d="M480.405 251.17C487.406 251.17 493.081 245.499 493.081 238.504C493.081 231.509 487.406 225.839 480.405 225.839C473.405 225.839 467.729 231.509 467.729 238.504C467.729 245.499 473.405 251.17 480.405 251.17Z" fill="black"/>
<path d="M371.323 251.17C378.324 251.17 383.999 245.499 383.999 238.504C383.999 231.509 378.324 225.839 371.323 225.839C364.323 225.839 358.647 231.509 358.647 238.504C358.647 245.499 364.323 251.17 371.323 251.17Z" fill="black"/>
<path d="M371.323 243.019C373.818 243.019 375.841 240.998 375.841 238.504C375.841 236.011 373.818 233.99 371.323 233.99C368.828 233.99 366.805 236.011 366.805 238.504C366.805 240.998 368.828 243.019 371.323 243.019Z" fill="white"/>
<path d="M365.29 153.014H480.83C492.968 153.014 502.811 162.85 502.811 174.978V189.879H391.788C383.617 189.879 384.75 216.385 364.412 216.385H318.014V200.281C318.014 174.185 339.188 153.028 365.304 153.028L365.29 153.014Z" fill="#007EB9"/>
<path d="M480.405 243.019C482.9 243.019 484.923 240.998 484.923 238.504C484.923 236.011 482.9 233.99 480.405 233.99C477.91 233.99 475.887 236.011 475.887 238.504C475.887 240.998 477.91 243.019 480.405 243.019Z" fill="white"/>
<path d="M391.222 153.014C374.68 159.099 363.18 184.629 363.18 216.371H318.014V200.267C318.014 176.449 335.619 153.014 362.797 153.014H391.222Z" fill="#08A6F0"/>
<path d="M326.512 225.386H355.319C356.282 225.386 357.061 224.607 357.061 223.645C357.061 222.683 356.282 221.904 355.319 221.904H326.512C325.549 221.904 324.77 222.683 324.77 223.645C324.77 224.607 325.549 225.386 326.512 225.386Z" fill="#BAC1CE"/>
<path d="M324.572 254.255H516.025C516.875 254.255 517.569 253.562 517.569 252.713C517.569 251.864 516.875 251.17 516.025 251.17H324.572C323.722 251.17 323.028 251.864 323.028 252.713C323.028 253.562 323.722 254.255 324.572 254.255Z" fill="#007EB9"/>
<path d="M451.923 275.858C458.923 275.858 464.599 270.188 464.599 263.193C464.599 256.197 458.923 250.527 451.923 250.527C444.922 250.527 439.247 256.197 439.247 263.193C439.247 270.188 444.922 275.858 451.923 275.858Z" fill="black"/>
<path d="M561.005 275.858C568.005 275.858 573.681 270.188 573.681 263.193C573.681 256.197 568.005 250.527 561.005 250.527C554.004 250.527 548.329 256.197 548.329 263.193C548.329 270.188 554.004 275.858 561.005 275.858Z" fill="black"/>
<path d="M561.005 267.707C563.5 267.707 565.523 265.686 565.523 263.193C565.523 260.699 563.5 258.678 561.005 258.678C558.51 258.678 556.487 260.699 556.487 263.193C556.487 265.686 558.51 267.707 561.005 267.707Z" fill="white"/>
<path d="M446.966 263.193H587.815C599.953 263.193 609.796 253.357 609.796 241.229V199.652C609.796 187.524 599.953 177.688 587.815 177.688H472.501C446.257 177.688 424.985 198.944 424.985 225.167V241.215C424.985 253.343 434.828 263.178 446.966 263.178V263.193Z" fill="#E6E8EA"/>
<path d="M451.923 267.707C454.418 267.707 456.441 265.686 456.441 263.193C456.441 260.699 454.418 258.678 451.923 258.678C449.428 258.678 447.405 260.699 447.405 263.193C447.405 265.686 449.428 267.707 451.923 267.707Z" fill="white"/>
<path d="M446.966 258.678H587.815C599.953 258.678 609.796 248.843 609.796 236.715V241.229C609.796 253.357 599.953 263.193 587.815 263.193H446.966C434.828 263.193 424.985 253.357 424.985 241.229V236.715C424.985 248.843 434.828 258.678 446.966 258.678Z" fill="#BAC1CE"/>
<path d="M587.39 275.858C594.391 275.858 600.066 270.188 600.066 263.193C600.066 256.197 594.391 250.527 587.39 250.527C580.389 250.527 574.714 256.197 574.714 263.193C574.714 270.188 580.389 275.858 587.39 275.858Z" fill="black"/>
<path d="M478.308 275.858C485.309 275.858 490.984 270.188 490.984 263.193C490.984 256.197 485.309 250.527 478.308 250.527C471.307 250.527 465.632 256.197 465.632 263.193C465.632 270.188 471.307 275.858 478.308 275.858Z" fill="black"/>
<path d="M478.308 267.707C480.803 267.707 482.826 265.686 482.826 263.193C482.826 260.699 480.803 258.678 478.308 258.678C475.813 258.678 473.79 260.699 473.79 263.193C473.79 265.686 475.813 267.707 478.308 267.707Z" fill="white"/>
<path d="M472.275 177.702H587.815C599.953 177.702 609.796 187.538 609.796 199.666V214.567H498.773C490.601 214.567 491.734 241.074 471.397 241.074H424.999V224.969C424.999 198.873 446.173 177.717 472.289 177.717L472.275 177.702Z" fill="#007EB9"/>
<path d="M587.39 267.707C589.885 267.707 591.908 265.686 591.908 263.193C591.908 260.699 589.885 258.678 587.39 258.678C584.895 258.678 582.872 260.699 582.872 263.193C582.872 265.686 584.895 267.707 587.39 267.707Z" fill="white"/>
<path d="M498.207 177.702C481.665 183.788 470.164 209.317 470.164 241.059H424.999V224.955C424.999 201.138 442.603 177.702 469.782 177.702H498.207Z" fill="#08A6F0"/>
<path d="M433.497 250.074H462.304C463.267 250.074 464.046 249.296 464.046 248.333C464.046 247.371 463.267 246.593 462.304 246.593H433.497C432.534 246.593 431.755 247.371 431.755 248.333C431.755 249.296 432.534 250.074 433.497 250.074Z" fill="#BAC1CE"/>
<path d="M431.556 278.943H623.01C623.86 278.943 624.554 278.25 624.554 277.401C624.554 276.552 623.86 275.858 623.01 275.858H431.556C430.707 275.858 430.013 276.552 430.013 277.401C430.013 278.25 430.707 278.943 431.556 278.943Z" fill="#007EB9"/>
</g>
<defs>
<clipPath id="clip0_245_6042">
<rect width="662" height="279" fill="white"/>
</clipPath>
</defs>
</svg>
